<?xml version="1.0" encoding="utf-8"?>
<!-- Generator: Adobe Illustrator 23.0.3, SVG Export Plug-In . SVG Version: 6.00 Build 0)  -->
<svg version="1.1" id="Layer_1" xmlns="http://www.w3.org/2000/svg" xmlns:xlink="http://www.w3.org/1999/xlink" x="0px" y="0px"
	 viewBox="0 0 731.4 497" style="enable-background:new 0 0 731.4 497;" xml:space="preserve">
<style type="text/css">
	.st0{opacity:0.85;fill:#EA64A5;enable-background:new    ;}
	.st1{fill:#F5AD56;}
	.st2{fill:#38B2AC;}
	.st3{fill:#2A4466;}
</style>
<g id="Layer_6">
</g>
<g id="Layer_5">
</g>
<g id="Layer_4">
</g>
<g id="Layer_8">
	<circle class="st0" cx="293.9" cy="74.5" r="65.8"/>
	<path class="st1" d="M495.3,299.1c-25.3-17.4-59.1-11.6-82.8,6.3c-0.7,0.1-1.3,0.3-1.8,0.7c-18.3,14.1-37.7,28.1-53.9,44.6
		c-15.1,15.3-25.3,35.5-27.7,56.9c-2.2,19.7,1.9,42.7,18.8,55.3c14.9,11.1,35,12,48.9-1.2c11.1-10.5,15.1-26,22.2-39.1
		c3.5-6.5,8-12.4,14.7-15.8c4.6-2.3,9.7-3.6,14.6-5.3c5-1.8,9.8-4,14.4-6.5C492.1,379.1,536,327,495.3,299.1z"/>
	<path class="st2" d="M778.3,101.8c0.2-8.5-0.5-17-1.5-25.5c-1-7.8-2.8-16.9-13.4-18.7c-4.8-0.8-9.7,0.1-14.3,0.8
		c-6.2,0.9-12.3,1.9-18.5,3.1c-12,2.1-23.9,4.6-35.7,7.4c-46.3,10.7-91.2,25.1-136.3,38.8c-45.9,13.9-92.3,26.5-139.4,36.9
		c-94.4,21-191.1,34.5-288.5,40.2c-12.1,0.7-24.3,1.3-36.4,1.8c-4.7,0.2-6.2,5-3.2,7.8c2.8,2.6,144.4,8.2,204.9,12
		c98,6,196.8,10.5,294.7,3c24.7-1.8,49.3-4.5,73.7-8.4c21.1-3.4,42.8-7.1,62-15.5c17.6-7.7,31.7-19.6,40.2-35
		C774.9,135.3,778,118.5,778.3,101.8z"/>
</g>
<g id="Layer_3">
	<g>
		<g>
			<path class="st3" d="M548.6,177.6c-0.3,0.1-0.5,0.1-0.8,0.2c-1.5,0.3-2.7,1.9-2.6,3.4c0.1,1.5,1.1,3.1,2.6,3.4
				c0.3,0.1,0.5,0.1,0.8,0.2c2.4,0.6,4.8-1.1,4.8-3.6C553.4,178.8,551,177.1,548.6,177.6z"/>
			<path class="st3" d="M543.5,317.6c-4.7,0-4.7,7.2,0,7.2S548.2,317.6,543.5,317.6z"/>
			<path class="st3" d="M571.3,300c-4.4-23-24.4-40.8-47.2-44.8c-14.1-2.5-28.6,0.1-40.9,7.4c-13.6,8.1-19.1,20.1-19.1,35.6
				c0,3.6,5.4,3.6,5.6,0c0.5-12.1,5.6-21.5,16.1-27.7c9.2-5.4,20-7.9,30.6-7.1c18.3,1.4,36.4,13.6,42.9,31
				c6.2,16.6,2.7,36.8-10.1,49.4c-14.3,14-37.2,16.2-54.1,5.8c-19.2-11.9-28.9-40.4-7.6-55.2c3.1-2.1,1.3-7.3-2.6-6.3
				c-11.8,3.1-18.9,15.4-19.8,27c-1,12.7,4.8,25.1,13.3,34.3c16.8,18.2,44.3,22.5,66,10.7C565.7,348.5,575.8,323.5,571.3,300z"/>
			<path class="st3" d="M512.6,242.7c-1.6-0.2-3.3-0.4-4.9-0.7c-4.8-0.8-7,6.3-2.1,7.5c18.8,4.3,37.4,3.5,56.6,2.6
				c8.6-0.4,19.2-2.1,27.3,1.4c7.1,3.1,11.4,11.3,19,12.9c2.6,0.5,5.9-1.2,5.6-4.3c-0.8-8.1-8.6-14.8-15.3-18.6
				c-8.8-5-18.3-4.5-28-3.7c-17.1,1.4-34.9,4.4-52.2,3.4"/>
			<path class="st3" d="M586,179.3c-1.9-12.7-9.3-26.9-19.8-34.6c-10.7-7.8-25-9.1-37.8-8.8c-26.1,0.5-55.8,13-62,41.1
				c-3.4,15.4,2.7,31,12.4,42.9c9.3,11.5,27.5,19.2,42.3,17.7c4.2-0.5,6.6-6.1,2.3-8.5c-9.1-5.1-20-5.6-28.5-12.3
				c-7.7-6.1-14.1-16.9-15.6-26.6c-3.2-21.1,16.6-36.4,34.8-40.7c10.3-2.4,21.8-2.9,32.2-1.2c10.4,1.7,18.2,7,23.6,16
				c5.6,9.3,9.1,20,5.5,30.6c-3,9-10.4,16.3-19.1,19.8c-11.8,4.8-25.5,3.3-37.1-1.6c-10.7-4.6-22.7-15-17.8-28
				c1.1-2.8-3.6-4.8-4.9-2c-12.6,26.5,24.4,42.9,45.2,42.7C565.9,225.4,589.9,205.1,586,179.3z"/>
			<path class="st3" d="M528.8,288.1c-2.9-2.2-5.6,2.3-3.6,4.7c4.2,5.2,4.2,12.9,3,19.1c-0.6,3.1-1.5,6.1-2.9,8.9
				c-1.4,2.7-3.3,5-4.3,7.9c-1.4,4,3.7,5.8,6.4,3.7c6.2-4.8,8.5-16.1,9.1-23.5C537,301.1,535.4,293,528.8,288.1z"/>
			<path class="st3" d="M537,185.4c-0.2-6.4-1.3-13.4-4.3-19.1c-1.5-2.9-5.9-0.9-5.2,2.2c1.1,4.5,2.6,8.8,3.1,13.5
				c0.3,3.2,1.7,10.3-1,12.8c-2.1,2,0.7,5.9,3.2,4.1C537.3,195.8,537.2,190.3,537,185.4z"/>
			<path class="st3" d="M634.1,248.3c-1.7-2.4-6.1-1-5,2.1c1.7,5,2.6,9.6,0.2,14.6c-1.5,3.1,2.9,5.8,4.7,2.7
				C637.2,262,638.1,253.9,634.1,248.3z"/>
			<path class="st3" d="M428.9,352.7c0.5,3,2.4,5.7,4.3,8.1c1.9,2.5,4.6,3.8,7.8,3.7c7.1-0.3,9.9-7.9,11.1-13.8
				c4-20.6,6.4-41.6,8.4-62.5c4-42.4,4.2-84.9-4.7-126.8c-0.7-3-1.3-6.5-2.4-9.7c4.3,2,9.5,2.4,13.9,3.1c3.3,0.5,6.6,0.9,9.8,1.7
				c3.6,0.9,7,2.4,10.7,2.9c4.1,0.5,5.9-5.3,3.3-7.9c-4.8-4.6-12.7-5.3-19.1-5.9c-7.1-0.8-14.2-1.5-21.3-2.1c-0.1,0-0.2,0-0.3,0
				c-1.5-0.5-3-0.9-4.5-1.3c-0.1,0-0.1,0-0.2,0c-1.5-0.6-3.3-0.8-5.4-0.6c-9.9,1-12.7,11.3-14.2,19.5c-2.5,13.3-4.3,26.7-5.3,40.2
				c-1.4,18.1-1.5,36.2-1.5,54.3C419.4,266.8,419.8,302,428.9,352.7z M426.2,255c-0.4-14-0.2-27.9,0.5-41.9
				c0.5-10,1.4-19.9,2.3-30.4c0.4-4.8,2.1-14.3,2.1-14.4c1.6-0.3,3.8,0.3,4.8,1.6c0.8,1,1,2.3,1.3,3.5c0.4,1.3,0.3,3,0.4,4.3
				c0.1,1.8,0.2,3.5,0.3,5.3c0.2,3.5,0.4,7.1,0.6,10.6c0.4,7.1,0.7,14.1,0.9,21.2c0.1,3.3,0.3,6.6,0.4,9.8c0.1,2,0.1,4,0.2,6
				c0.2,7.9,0.4,15.9,0.5,23.8c0.1,12.5-0.4,28.7-0.3,37.5c0.1,14.2-1.8,36.4-2.1,37.9c-0.2,1.1-0.5,2.7-1.2,2.7
				c-2,0-3.2-0.1-6-17.1C428,298.6,426.6,267,426.2,255z M455.1,250.2c0.3,19.7-0.7,39.3-2.8,58.8c-1.2,10.5-2.5,20.9-4.1,31.3
				c-0.6,4-1.2,8.1-2.1,12.1c-0.8,3.2-1.5,6.9-5.6,6.9c-1.2,0-2.4-0.4-3.3-1.3c-0.7-0.7-1.2-1.5-1.6-2.3c-0.8-1.6-1.4-3.4-1.9-5.2
				c-0.1-0.4-0.9-4.7-0.8-4.7c3,0.5,5.7,0,7.7-2.7c4.4-6.2,5.1-15,5.6-22.4c1.3-20.1,1.6-40.3,1.8-60.4c0.3-20.3-0.2-40.6-1-61
				c-0.4-9.5-0.7-18.7-2-28.1c-0.6-4-2.8-13.3-7.8-13c0.7-2.2,1.6-4.3,3.2-5c3.1-1.2,6.2,6.4,6.8,8.5c2.5,9.8,4.1,19.2,5.4,29.1
				C455,210.9,454.8,230.5,455.1,250.2z"/>
			<path class="st3" d="M691.6,218.4c-8.3-10.7-18.9-19.3-30.2-26.5c-23.7-15.2-50.2-24.3-78-27.8c-4.3-0.5-5.3,6.8-1,7.5
				c25,4.4,49.5,13.6,71.2,26.9c10.4,6.4,20.4,13.8,28.3,23.2c8.4,9.9,12.1,21,16.2,33.1c1.3,3.9,6.6,3,7-1
				C706.2,241.1,699.1,228.1,691.6,218.4z"/>
			<path class="st3" d="M506.4,356.5c-5.3-0.4-10.6,1.6-15.7,2.7c-5.6,1.1-11.2,2-16.9,2.4c-10.9,0.8-22.2,0.8-33.1,0
				c-3.9-0.3-4.6,5.7-0.9,6.7c11.9,3.4,23.5,4.6,35.9,3.7c10.6-0.8,25.1-1.6,33.6-8.6C512.2,361,509.5,356.8,506.4,356.5z"/>
			<path class="st3" d="M697.3,250.6c-3.5,7.8-6.3,15.8-10.5,23.2c-4.1,7.1-9,13.7-14.5,19.8c-11.2,12.5-24.4,23.7-38.2,33.1
				c-27.6,18.8-60.5,24.2-93,26.3c-4.4,0.3-4.4,6.6,0,7c34.4,2.6,70.6-5.5,99.5-25.4c14.7-10.1,28.9-21.9,40.7-35.5
				c11-12.6,22.3-28.9,23.8-46.2C705.4,248.7,699,246.8,697.3,250.6z"/>
			<path class="st3" d="M723.4,322.7c-2.4-3.8-6.6-5.1-10.6-6.8c-4.8-2-9.7-3.9-14.6-5.4c-9.4-2.9-19-4.4-28.8-4
				c-3.9,0.1-3.6,5.4,0,5.8c9.5,1.2,18.8,4.5,27.6,8.1c3.9,1.7,7.8,3.5,11.7,5.3c4.2,1.9,7.6,3.9,12.2,3.3
				C723.6,328.5,724.8,324.8,723.4,322.7z"/>
			<path class="st3" d="M716.2,210.6c-4.4-1.7-9.7-0.6-14.4-0.7c-5.4-0.1-10.7-0.8-16-2c-4.8-1-6.8,6.1-2,7.4
				c5.6,1.5,11.3,2.5,17.2,2.9c5.1,0.4,11.6,0.9,16-2C719.2,214.6,718.6,211.5,716.2,210.6z"/>
			<path class="st3" d="M707.4,352.9c-9-7.3-21.3-12.7-32.6-15.2c-10.8-2.4-22.1-2.7-32.7,1c-10.4,3.6-18.9,10.1-25.1,19.3
				c-5.7,8.4-9.2,18.8-17.1,25.6c-8.1,6.9-18.3,3.6-25.3-3.3c-8.1-8-16.4-14.3-28-8.8c-4.3,2-7.9,5.6-12.4,7.1
				c-5.4,1.8-11,0.6-15.7-2.4c-8.1-5.2-15.4-10.4-25.4-7.3c-8.9,2.8-15.2,10.3-23.8,13.6c-12.6,4.8-22.4-9.6-27.1-19.3
				c-1.6-3.3-7.3-1.4-6.2,2.3c3.1,10,9.8,19.9,19.6,24.5c8.3,3.9,16.5,1.2,24-3.2c6-3.5,14.8-11.3,22.2-7.5c4.6,2.4,8,6.9,12.4,9.6
				c5.2,3.2,11.3,4.7,17.4,4.3c5.6-0.3,10.5-2.3,15.3-5.2c3.7-2.3,7.5-5.9,11.6-2.7c3.8,3,6.7,7.2,10.6,10.2
				c4.8,3.7,10.5,6.3,16.5,7.2c11.3,1.8,21.6-3.4,28.9-11.8c7.4-8.5,11-19.5,18.3-28c7.4-8.6,19.3-12,30.3-12
				c14.6-0.1,27.2,5.8,41.1,8.9C708.4,360.6,710.8,355.7,707.4,352.9z"/>
			<path class="st3" d="M432,341c-0.2-1.3-0.4-2.6-0.8-3.8c0-0.1-0.1-0.3-0.2-0.3c-0.1-0.3-0.2-0.5-0.3-0.8c0-0.1,0-0.2,0-0.3
				c-0.1-0.5-0.3-0.9-0.6-1.1c-0.7-1-2.6-0.3-2.7,1c0,0.1,0,0.2,0,0.3c-0.1,0.2-0.2,0.5-0.2,0.8c0.1,0.7,0.2,1.4,0.2,2.1l0,0
				c0,0.1,0,0.3,0.1,0.4c0.1,0.3,0.2,0.6,0.4,0.8c0.1,0.2,0.1,0.3,0.2,0.5c0,0.1,0.1,0.1,0.1,0.2c0.2,0.6,0.3,1.2,0.5,1.8
				c0.4,1.5,2.8,1.3,2.9-0.1C431.9,342,432.1,341.5,432,341z"/>
			<path class="st3" d="M430.5,333.4c0.2-1.4-2.3-1.8-2.5-0.3c-0.5,2.8-0.3,6.3,0.2,9.1c0.2,1.5,2.5,1.1,2.5-0.3
				C430.7,339.1,430.1,336.2,430.5,333.4z"/>
			<path class="st3" d="M429.8,339c-0.3-2.7-0.5-5.4-0.3-8.1c0.1-1.7-2.4-1.7-2.6,0c-0.3,2.8-0.3,5.7,0.3,8.4
				C427.6,340.8,430,340.5,429.8,339z"/>
			<path class="st3" d="M431.7,349.6c-3.5-9.8-4.4-20.4-4.7-30.8c-0.1-1.7-2.6-1.7-2.6,0c0,10.1,0.2,22.6,5,31.8
				C430,351.9,432.2,351,431.7,349.6z"/>
			<path class="st3" d="M431.7,350c-1.5-4.6-2.7-9-3-13.9c-0.1-1.7-2.7-1.7-2.7,0c0.2,5.1,1.1,10.2,3.2,14.9
				C429.8,352.5,432.1,351.5,431.7,350z"/>
			<path class="st3" d="M432,351.8c-1.2-3.8-2.4-7.4-3-11.3c-0.2-1.4-2.7-1.1-2.6,0.3c0.5,4.1,1.3,8.2,3.1,12
				C430.2,354.3,432.5,353.3,432,351.8z"/>
			<path class="st3" d="M432.6,350.5c-0.3-0.8-0.7-1.7-1-2.5c-0.3-0.6-0.8-1.1-1.6-0.9c-0.6,0.2-1.1,0.9-0.9,1.5
				c0.4,0.9,0.7,1.9,1.2,2.8C430.9,352.7,433,351.8,432.6,350.5z"/>
			<path class="st3" d="M391.9,218.5c-13.4,0.1-26.6,1.5-39.9,2.9c-6.1,0.6-12.3,1.2-18.4,1.9c-6.4,0.7-13.1,1.8-19.5,0.5
				c-10.5-2-18-10.8-24.4-18.7c-6.8-8.5-13.4-17.2-21.1-25c-8.2-8.3-17.1-15.9-26.6-22.6c-9.4-6.6-20-13.7-31.2-16.8
				c-12-3.3-21.5-0.5-31.7,6c-9.8,6.2-20.3,10.3-31.9,11.3c-24,2.1-47.7-10.4-61.6-29.8c-3.3-4.5-11.1,0.5-8.3,5.3
				c5.7,9.7,12.3,17.7,21.8,24c9.3,6.2,19.9,10.3,30.9,12c11.2,1.8,22.9,0.9,33.7-2.4c5.2-1.5,10.2-3.5,14.9-6.1
				c5.2-2.9,10-7.1,15.7-9c11.7-4,24.8,4.9,34.2,10.9c10.6,6.8,20.7,14.7,29.6,23.6c8.2,8.1,15.2,17.2,22.4,26.2
				c6.5,8.1,13.9,15.9,23.6,20.1c13.1,5.7,28.5,2.1,42,0.2c15.4-2.1,30.8-3.8,46-7.3C396.2,225,396.3,218.5,391.9,218.5z"/>
			<path class="st3" d="M397.7,290.8c-7.1,6.3-18,3-24.8-2.1c-7.8-6-13.8-14-21.9-19.6c-2.7-1.9-6.8,1.3-5.7,4.4
				c7.4,21.3,15.2,42.3,22.8,63.5c-5-3.8-8.7-14.2-10.4-18.2c-3.2-7.3-5.9-14.7-9-22c-5.8-13.6-13.5-26.9-26.8-34.3
				c-2.7-1.5-5.5,0.4-5.8,3.3c-1.2,15.1,4.7,29.3,9.8,43.2c2.6,7.1,5,14.4,5.8,21.9c0.3,3.2,1,8.1-0.2,11c-1,2.6-2.7,0.2-3.8-1.5
				c-1.2-2.1-2-4.5-2.9-6.7c-3.9-9.2-7.7-18.5-11.5-27.7c-3-7.2-5.3-16-10.1-22.2c-3.8-4.8-10.1-6.2-15.1-2.3
				c-5.9,4.6-6,12.1-3.8,18.7c3.2,9.9,6.9,19.3,9,29.5c1.8,9,2.8,18.1,2.9,27.2c-4.4-3.7-7.6-15.9-8.8-19
				c-3.4-8.6-6.8-17.2-10.3-25.8c-2.4-6.1-4.6-13.6-10.5-17.3c-4.8-3.1-10.9-2.3-14.6,2.1s-4,10.7-3.7,16.2
				c0.2,4.6,0.5,9.3,0.8,13.9c0.2,2.5,1.5,8,0,10.3c-1.5,2.4-4.3-1-6-2.3c-2.6-2.2-5.2-4.3-8.3-5.5c-6.3-2.4-13.1-0.4-18.8,2.8
				c-7.2,4.2-13,10.4-19.9,15c-7.6,5.1-16,8.7-24.7,11.6c-5.6,1.9-3.2,9.5,2.4,8.7c15.4-2.4,27.7-10.7,39.3-20.6
				c5-4.2,12.8-11.4,19.7-7.4c5.1,3,8.7,8.7,15.2,8.8c16.3,0.2,10.4-25.9,9.8-35.1c-0.3-4.4,0.7-16.1,6.2-7.7
				c4.6,7,7,16.2,10.1,23.9c3.6,8.9,6.7,18.3,11,26.9c3.2,6.3,8.9,12.2,16.5,10c1.8-0.5,3.2-2.3,3.2-4.2c0-17.9-2.5-35.7-8.3-52.6
				c-1.4-4.1-3.3-8.1-4.6-12.3c-0.7-2.4-1.5-5.5-0.1-7.8c1.3-2.3,3.3-2.6,5.1-0.7c2.5,2.5,3.7,7.1,5,10.3c2,4.6,4,9.1,6.1,13.7
				c3.9,8.8,8,17.6,11.8,26.4c2.1,4.8,5.4,12.4,12,11.7c6.4-0.7,6.8-8.8,6.9-13.7c0.1-7.3-1.5-14.6-3.6-21.6
				c-4.2-13.9-11-27.6-11.6-42.2c11.2,9.4,16.8,23.6,22.2,37c3.1,7.6,6.2,15.2,10.1,22.4c3.9,7.1,9.7,15,18.9,13
				c1.9-0.4,3.3-2.8,2.6-4.6c-6.7-18.7-13.1-37.5-19.8-56.2c5.4,5.4,10.7,10.9,17.8,14c8.8,3.9,19.9,4.3,26.4-3.9
				C404,292,400.6,288.3,397.7,290.8z"/>
			<path class="st3" d="M382.7,382.9c-5.6,13.8-20,19.8-34.2,16.6c-7.9-1.8-14.7-5.6-21.5-9.8c-6-3.8-13-6.9-20-3.6
				c-6.6,3.1-11.8,10-16.6,15.2c-5.7,6.2-11.2,12.6-16.8,18.8c-10.6,11.9-21.7,23.8-35.1,32.8c-6.8,4.6-14.2,8.5-22,11
				c-8.3,2.7-16.7,2.9-25.2,4.2c-4.9,0.8-4.2,7.9,0,9.2c14.8,4.3,32.5-2.6,45.3-9.7c14.7-8.1,27.1-19.7,38.4-32
				c6.1-6.7,11.9-13.5,17.8-20.3c2.8-3.2,5.6-6.3,8.4-9.4c2.8-3.1,6.1-7.7,9.9-9.6c3.6-1.8,7.3,0.9,10.4,2.8
				c3.7,2.3,7.4,4.5,11.3,6.3c7.7,3.5,16,5.9,24.5,5.6c14.9-0.4,31.9-10.8,32.4-27.1C389.8,379.5,384.1,379.4,382.7,382.9z"/>
			<path class="st3" d="M401.4,161.9c-4.3,2.1-7.5-3.4-7.6-7c-0.1-4.5,2.4-8.7,4.3-12.6c2.8-5.9,4.5-13-1-18
				c-5.1-4.6-11.4-2.1-14.6,3.3c-4.7,7.8-8.2,16.5-12.3,24.6c-1.5,3-3.7,8.3-7.6,8.7c-5.9,0.7-1.3-7,0.1-9.1
				c4.9-7.4,9.9-14.6,13.9-22.5c3-5.8,6.7-12.8,4.2-19.4c-2.6-6.6-9.9-7.4-15.7-4.6c-7.4,3.6-12.3,10.7-16.4,17.6
				c-4.1,6.7-8.9,15.9-16.9,18.4c-0.2-7.7,3.8-15,7-21.9c4-8.5,9.6-17.4,12-26.5c1.8-6.7-0.6-15.1-8.6-15.8c-7.3-0.7-13,5-17.1,10.3
				c-5.3,6.9-9.2,14.9-15.2,21.3c-0.3,0.3-4.2,4.1-3.8,4.3c-0.7-0.3,0.1-5.1,0.2-5.6c0.5-4.5,1.7-8.9,3.2-13.2
				c1.3-3.7,3.5-7.7,1-11.5c-2.1-3.2-6-3.9-9.6-3.8c-6.4,0.1-16.7,6.5-21.7,0.2c-3.3-4.1-8.8,0.9-6.9,5.1c3,6.6,10.4,8.1,17,7.1
				c1.4-0.2,9.8-3.1,12.3-2.8c-0.9,0.5-1.8,4-1.9,4.5c-0.7,2.1-1.3,4.2-1.7,6.4c-1.3,6-3.5,15,1,20.3c6,7,14.3-0.1,18.6-5.2
				c5.5-6.4,9.5-14,14.5-20.8c1.8-2.5,4.3-6.2,7.6-7c5.8-1.5,0.5,8.6-0.5,10.6c-4.1,8.8-8.5,17.5-12.3,26.4
				c-3.3,7.6-5.3,15.7-3.3,23.9c0.4,1.8,2.3,3.5,4.3,3.5c18.4-0.8,23.8-18.6,33.4-31c2-2.6,4.9-5.9,8.2-6.9c5.8-2,2.6,5.7,1.3,8.4
				c-4,8.3-8.9,16.2-14.3,23.8c-3.8,5.4-8.2,12.7-4.4,19.3c3.4,5.9,11.2,6.5,16.7,3.2c7.1-4.3,10.2-14.1,13.7-21.1
				c2-3.9,3.9-7.8,5.9-11.7c0.6-1.1,1.8-5.4,3.9-3.5c1.5,1.3-0.6,5.5-1.1,6.8c-3.1,7-7.8,15.3-4.1,23.1c3.1,6.4,11.1,10.5,17.5,6.3
				C407.9,165.2,405.1,160.1,401.4,161.9z"/>
			<path class="st3" d="M258.6,65c-6.4,0-6.4,9.9,0,9.9S265,65,258.6,65z"/>
			<path class="st3" d="M70.7,108.9c-6.4,0-6.4,10,0,10S77.1,108.9,70.7,108.9z"/>
			<path class="st3" d="M172.8,449.3c-5.3,0-5.3,8.2,0,8.2S178.1,449.3,172.8,449.3z"/>
		</g>
	</g>
</g>
</svg>
