<?xml version="1.0" encoding="utf-8"?>
<!-- Generator: Adobe Illustrator 23.0.3, SVG Export Plug-In . SVG Version: 6.00 Build 0)  -->
<svg version="1.1" id="Layer_1" xmlns="http://www.w3.org/2000/svg" xmlns:xlink="http://www.w3.org/1999/xlink" x="0px" y="0px"
	 viewBox="0 0 1337.2 544.7" style="enable-background:new 0 0 1337.2 544.7;" xml:space="preserve">
<style type="text/css">
	.st0{fill:#F5AD56;}
	.st1{fill:#EA64A5;}
	.st2{fill:#38B2AC;}
</style>
<path class="st0" d="M1101.2,302.4c-39.8,0-80,5.1-115.6-16.2c-29.1-17.4-52.3-47.1-59.2-80.6c-10.5-51,15.1-100.2,57.5-127.7
	c2.8-1.3,4.8-4.2,4.8-7.5c0-4.6-3.7-8.4-8.4-8.4l-56.8,0.2h-29.8c-16.4,0-29.7,13.3-29.7,29.7V391c0,17.3,14,31.4,31.4,31.4h206
	c33.1,0,59.9-26.8,59.9-59.9C1161.2,329.2,1134.3,302.4,1101.2,302.4"/>
<path class="st0" d="M1041.2,242.2c39.8,0,80-5.1,115.6,16.2c29.1,17.4,52.3,47.1,59.2,80.6c10.5,51-15.1,100.2-57.5,127.7
	c-2.8,1.3-4.8,4.2-4.8,7.5c0,4.6,3.7,8.4,8.4,8.4l56.8-0.2h29.8c16.4,0,29.7-13.3,29.7-29.7v-299c0-17.3-14-31.4-31.4-31.4h-206
	c-33.1,0-59.9,26.8-59.9,59.9C981.3,215.4,1008.1,242.2,1041.2,242.2"/>
<path class="st1" d="M88.4,62.3L88.4,62.3c-16.5,0-29.8,13.4-29.8,30v360c0,16.6,13.3,30,29.8,30s29.8-13.4,29.8-30v-360
	C118.2,75.7,104.9,62.3,88.4,62.3"/>
<path class="st1" d="M297.8,62.5L297.8,62.5c0,0-73.7,0-90,0.2s-24,12.1-24,12.1c-4.7,5.9-5.8,16.1-5.8,16.1
	c-0.7,30.1,29.7,31.4,29.7,31.4h29.6c0,0,59.6,3.4,59.4,59.9c-0.2,56.6-59.6,59.6-59.6,59.6l-27.5,0.3c-29,1.4-29.8,29.8-29.8,29.8
	c1.1,28,29.8,29.8,29.8,29.8l29.8-0.7c57.5,3.7,57.3,59.5,57.3,59.5c-3.4,58.3-59.6,59.6-59.6,59.6s-0.2,0.3-29.2,2.3
	s-29.8,29.8-29.8,29.8c2.8,30.1,29.8,29.8,29.8,29.8l83.6-0.1c1.8,0.1,3.9,0.1,6.2,0.1c115.9,0,209.8-93.9,209.8-209.8
	S413.6,62.5,297.8,62.5"/>
<path class="st2" d="M775.2,242.5H596.6c-16.5,0-29.8,13.3-29.8,29.8s13.3,29.8,29.8,29.8h178.6c16.5,0,29.8-13.3,29.8-29.8
	S791.6,242.5,775.2,242.5"/>
<path class="st2" d="M775.2,62.5h-29.7h-0.1H686h-0.1h-59.4h-0.1H567h-0.1h-29.7c-16.5,0-29.8,13.3-29.8,29.8s13.3,29.8,29.8,29.8
	h29.7h0.1h59.4h0.1h59.4h0.1h59.4h0.1h29.7c16.5,0,29.8-13.3,29.8-29.8C805,75.9,791.6,62.5,775.2,62.5"/>
<path class="st2" d="M775.2,422.5h-29.7h-0.1H686h-0.1h-59.4h-0.1H567h-0.1h-29.7c-16.5,0-29.8,13.3-29.8,29.8s13.3,29.8,29.8,29.8
	h29.7h0.1h59.4h0.1h59.4h0.1h59.4h0.1h29.7c16.5,0,29.8-13.3,29.8-29.8S791.6,422.5,775.2,422.5"/>
</svg>
